<?xml version="1.0" encoding="UTF-8"?>

<svg xmlns="http://www.w3.org/2000/svg" viewBox="0 0 154 136.95" class="logo" style="background-color:white">
    <g>
        <path d="M147.56,62.74c6.28-9.09,10.15-22.46.36-28.32-9.79-5.86-23.79,5.69-30.07,14.53-5.18,7.29-9.28,15-12.85,
        23.25l-11.04,25.53c-3.54,1.18-9.4,1.05-11.57-2.04-7.66-10.94,8.18-40.32,13.81-51.39,15.3-6.44,36.6-16.33,
        41.02-33.83.71-2.83-.29-7.14-2.21-8.81-1.5-1.3-5.4-2.04-7.86-1.45-18.5,4.42-35.53,29.45-44.39,45.65l-21.2,
        4.88c3.72-11.1,7.35-20.88,11.92-31.24,2.95-6.7,7.85-11.43,12.28-18.1-6.77,3.4-10.83,8.7-16.4,13.24-2.38,
        1.95-21.64,17.31-23.17,11.74-.19-.68-.2-2.15.05-2.81l3.46-9.21c.62-1.64.2-5.35-.72-6.79s-4.46-2.96-6.47-2.73c-14.09,
        1.65-22.17,14.32-28.64,25.1l-1.27,2.12c-.16.28.79.91,1.33,1.4,3.91-7.63,16.19-27.15,28.1-25.85l-4.54,12.23c-1.04,
        2.81-.09,7.22,2.24,8.95,8.59,6.37,21.4-6,29.46-11.35-8.31,11.01-15.02,22.84-21.03,35.88-8.2,3.27-28.17,9.22-29.18,
        19.54,8.96-9.89,14.75-12.5,27.47-16.27-5.76,13.43-19.31,48.87-38.31,42.22-4-1.4-6.34-5.67-5.34-9.08,3.08,1.3,6.53,
        1.52,8.16-1.17,1.03-1.71.57-5.24-1.08-6.87-1.32-1.3-5.42-1.18-6.97.36-3.78,3.75-3.52,9.21-1.28,13.67,5.96,11.88,26.8,
        5.79,39.36-8.87h-.02c8.64-10.08,14.17-21.53,19.91-33.67l20.43-4.76c-5.45,13.14-12.96,28.5-8.88,42.18,2.59,8.65,11.04,
        11.05,20.25,9.76-2.68,6.15-5.66,11.87-9.37,17.29-12.84-3.13-29.09-5.48-39.92,2.81-1.92,1.48-3.07,4.98-2.59,7.21.4,
        1.87,3.1,4.29,5.41,4.96,12.16,3.54,24.01-.16,34.16-7.38,21.26,6.75,50.63,24.79,63.46-4.5-7,7.77-14.52,11.08-24.06,
        8.05l-31.35-9.96c6.56-7.12,11.64-14.35,16.65-21.66,16.7-8.48,31.82-18.99,42.49-34.44ZM118.27,67.39c3.37-8.02,
        14.53-38.77,27.41-31.23,3.87,2.26,2.62,7.7,2.09,11.72-6.58,19.71-20.57,36.42-40.45,45.55l10.95-26.04ZM98.75,
        38.59c5.66-10.42,20.43-41.27,32.97-35.88,1.43.57,2.12,2.25,2.46,3.97l.03.19c.54,14.99-20.79,28.98-34.98,
        33.59-1.67.47-.96-.99-.48-1.87ZM43.37,126.73c-.09-1.58,1.18-4.12,2.89-5.48,9.2-5.09,20.24-.43,30.35,2.67h.01c-7.79,
        8.95-32.81,11.01-33.25,2.81Z"/>
    </g>
</svg>