<?xml version="1.0" encoding="UTF-8"?>
<svg xmlns="http://www.w3.org/2000/svg" viewBox="0 0 154 136" class="logo" style="background-color:white">
    <g transform="translate(0 10)">
        <path d="M145.55,108.56l-26.81-.39c-13.75-.2-27.2-.57-40.99-.04-.86.03-3.09-1.02-2.88-1.76,1.01-3.6,4.94-.51,10.05-4.45,1-6.04,2.07-11.2,2.1-17.02l.2-31.25-56.76-.06.04,31.33c0,5.72.93,11.42,2.14,17.2,6.22,3.1,10.94.7,12.93,4.29.36.66-1.91,1.83-2.75,1.79-13.13-.59-25.91-.63-38.97-.16-.52.02-1.84-.12-2.23-.19-.59-.1-1.07-2.28-.52-2.51,4.28-1.81,8.79-1.02,9.57-3.31,1.56-4.57,2.46-10.3,2.47-15.18l.1-73.9c0-2.44-1.15-6.22-2.64-7.38-1.66-1.29-5.29-1.82-7.63-2.2l-2.54-.41c-.54-.09-.58-1.92-.11-2.19S2.35.01,2.91.01l36.8.02c.65,0,2.19.41,2.72.6s.42,2.29-.13,2.4l-2.66.55c-1.95.4-5.34.96-6.59,1.99s-2.32,4.45-2.34,6.31l-.37,33.86h56.88s-.19-32.95-.19-32.95c-.01-2.25-.94-6.14-2.47-7.2-1.75-1.22-5.33-1.77-7.64-2.16l-2.57-.43c-.54-.09-.63-2.22-.12-2.42S76.17,0,76.97,0h37.6c.85,0,2.85,2,2.22,2.42-3.96,2.68-6.48.24-9.81,3.1-1.24,1.07-2.69,4.41-2.68,6.45l.17,75.93c0,3.2,1.79,9.31,4.72,10.1,9.79,2.66,19.77,2.2,29.5.98,8.22-1.03,9.89-9.55,11.97-14.75.26-.66,3.06.06,3.04.91-.09,5.99-1.86,15.32-3.49,20.83-.29.99-3.38,2.6-4.67,2.58Z"/>
    </g>
</svg>