<?xml version="1.0" encoding="UTF-8"?>
<svg xmlns="http://www.w3.org/2000/svg" viewBox="0 0 176.15 172.98">
    <rect width="100%" height="100%" fill="white"/>
    <g>
        <path d="M114.4,163.05c3.49-4.83,2.2-13.01,6.84-13.84,1.76-.32,4.94,1.7,4.62,3.48-1.57,8.72-7.92,15.03-14.36,17.87-8.71,3.84-18.13,3.16-25.34-2.41s-11.1-14.26-12.2-23.42c-2.26-18.73.16-37.21,4.92-55.37l4.78-18.25-20.09,7.73c-7.66,19.5-14.89,39.95-32.49,52.43-6.95,4.93-15.98,6.72-23.7,2.86-6.98-3.49-8.71-11.77-6.42-19.17,6.04-19.56,31.96-28.77,49.6-36.31l12.3-42.51c-16.07,11.68-31.78-.69-40.23,13.56-3.15,5.3-1.27,12.36,4.25,14.8,4.61,2.03,9.4.22,10.56-4.86.55-2.4,2.28-3.81,4.61-3.42,1.75.3,3.41,3.34,2.25,5.55-4.17,7.92-16.28,9.75-22.94,3.62-6.79-6.24-5.22-16.65,1.62-22.17,4.89-3.95,11.17-4.9,17.44-4.71,29.36.89,22.97-26.41,37.39-14.32l-12.73,49.06,20.47-7.74c7.16-19.2,18.01-47.49,34.16-60.29,6.07-4.81,14.47-6.9,21.47-3.7,6.22,2.84,7.41,10.24,6.96,16.41,4.43.21,8.9.8,12.63,2.85,3.38,1.86,3.82,6.64,1.71,9.01-.55.61-2.62,1.61-3.25,1.21-3.39-2.13-2.28-6.72-5.57-7.83-1.67-.57-4.67-.37-6.88.06-.78,10.97-10.79,15.96-15.54,24.07-6.62,11.29-7.69,25.64-10.78,38.32l-6.69,27.44c-1.98,8.12-5.98,15.09-10.55,22.39,10.7-3.45,21.84-3.47,33.23-1.45,11.38,2.01,35.29,4.99,35.89-11.68.25-6.92-3.64-13-10.97-14.24-11.23-1.9-8.43,11.74-15.28,9.86-2.56-.7-3.63-4.3-2.23-6.79,3.08-5.5,9.21-7.58,15.19-7.47,5.35.09,11.66,2.57,14.61,8.03,3.65,6.74,3.32,15.08-.99,22.35-3.02,5.08-9.2,9.97-16.74,11.2-16.54,2.68-27.45-4.65-46.84-4.96-13.1-.21-15.36,8.68-19.69,6.89-5.02-2.07,4.7-7.08,7.38-16.4,7.61-26.49,11-48.55,18.38-74.32l-16.8,8.74c-7.32,22.01-23.87,80.12-6.79,98.84,5.77,6.33,17.41,6.56,22.87-1.01ZM143.7,19.06c.91-4.19-.05-10.19-3.91-13.15-8.32-6.36-19.73,9.2-23.36,16.05-6.37,12.03-11.51,23.57-16.3,37.25,6.86-2.88,12.17-6.15,17.72-9.93,5.4-12.94,11.62-25.01,25.84-30.21ZM30.3,120.58c8.16-10.89,13.73-22.58,18.36-36.21-15.02,6.12-39.07,15.69-44.01,32.61-.93,4.43-.13,8.76,2.45,11.21,7.59,7.21,17.64-.19,23.2-7.61Z"/>
    </g>
</svg>